<?xml version="1.0" encoding="UTF-8"?>
<svg id="Layer_2" data-name="Layer 2" xmlns="http://www.w3.org/2000/svg" viewBox="0 0 719 86.36">
  <defs>
    <style>
      .cls-1 {
        fill: #454545;
        stroke-width: 0px;
      }
    </style>
  </defs>
  <g id="Layer_1-2" data-name="Layer 1">
    <path class="cls-1" d="M67.62,0l-4.65,3.5,4.65,3.58h421.06c4.41,0,7.99,3.58,7.99,7.99v20.34c0,2.34-1.9,4.24-4.24,4.24H6.28l-6.28,3.54,6.28,3.54h486.16c2.34,0,4.24,1.9,4.24,4.24v20.34c0,4.41-3.58,7.99-7.99,7.99H67.62l-5.16,3.54,5.16,3.54h422.24c7.67,0,13.88-6.22,13.88-13.88v-21.52c0-2.34,1.9-4.24,4.24-4.24h208.97c1.13,0,2.04-.91,2.04-2.04v-3c0-1.13-.91-2.04-2.04-2.04h-208.97c-2.34,0-4.24-1.9-4.24-4.24V13.88c0-7.67-6.22-13.88-13.88-13.88H67.62Z"/>
  </g>
</svg>