<?xml version="1.0" encoding="UTF-8"?>
<svg id="Layer_2" data-name="Layer 2" xmlns="http://www.w3.org/2000/svg" viewBox="0 0 717.98 65.69">
  <defs>
    <style>
      .cls-1 {
        fill: #454545;
        stroke-width: 0px;
      }
    </style>
  </defs>
  <g id="Layer_1-2" data-name="Layer 1">
    <path class="cls-1" d="M77.93,0l-3.72,2.48,3.72,2.48h412.67c5.07,0,9.19,4.11,9.19,9.19v11.75c0,1.92-1.55,3.47-3.47,3.47h-5.31c-1.52,0-2.75-1.23-2.75-2.75v-2.06c0-4.59-3.72-8.32-8.32-8.32H60.55l-3.26,2.53,3.26,2.44h419.14c1.99,0,3.61,1.61,3.61,3.61v1.81c0,1.52-1.23,2.75-2.75,2.75H4.86l-4.86,3.48,4.86,3.48h475.69c1.52,0,2.75,1.23,2.75,2.75v1.81c0,1.99-1.61,3.61-3.61,3.61H60.55l-3.26,2.44,3.26,2.53h419.4c4.59,0,8.32-3.72,8.32-8.32v-2.06c0-1.52,1.23-2.75,2.75-2.75h5.31c1.92,0,3.47,1.55,3.47,3.47v11.74c0,5.07-4.11,9.19-9.19,9.19H77.93l-3.17,2.44,3.17,2.53h414.53c6.79,0,12.29-5.5,12.29-12.29v-13.61c0-1.92,1.55-3.47,3.47-3.47h208.11c.91,0,1.64-.74,1.64-1.64v-3.67c0-.91-.74-1.64-1.64-1.64h-208.11c-1.92,0-3.47-1.55-3.47-3.47v-13.61c0-6.79-5.5-12.29-12.29-12.29H77.93Z"/>
  </g>
</svg>