<?xml version="1.0" encoding="UTF-8"?>
<svg id="Layer_2" data-name="Layer 2" xmlns="http://www.w3.org/2000/svg" viewBox="0 0 717.98 102.49">
  <defs>
    <style>
      .cls-1 {
        fill: #454545;
        stroke-width: 0px;
      }
    </style>
  </defs>
  <g id="Layer_1-2" data-name="Layer 1">
    <g>
      <path class="cls-1" d="M108.27,1.4h381.72c7.97,0,14.43,6.46,14.43,14.43v16.07c0,2.38,1.93,4.32,4.32,4.32h209.24v7.66h-209.24c-2.38,0-4.32,1.93-4.32,4.32v15.95c0,7.97-6.46,14.43-14.43,14.43H108.27v-7.48h379.92c4.96,0,8.97-4.02,8.97-8.97V17.44c0-4.96-4.02-8.97-8.97-8.97H108.27V1.4Z"/>
      <path class="cls-1" d="M113.19,97.13v2.42c0,1.62-1.32,2.94-2.94,2.94h-32.2c-1.62,0-2.94-1.32-2.94-2.94v-2.42c0-1.62,1.32-2.94,2.94-2.94h10.37c.94,0,1.71-.77,1.71-1.71v-7.04h8.3v7.04c0,.94.77,1.71,1.71,1.71h10.12c1.62,0,2.94,1.32,2.94,2.94ZM76.1,99.55c0,1.07.87,1.94,1.94,1.94h32.2c1.07,0,1.94-.87,1.94-1.94v-2.42c0-1.07-.87-1.94-1.94-1.94h-10.12c-1.49,0-2.71-1.21-2.71-2.71v-6.04h-6.3v6.04c0,1.49-1.21,2.71-2.71,2.71h-10.37c-1.07,0-1.94.87-1.94,1.94v2.42Z"/>
      <path class="cls-1" d="M108.77,0v9.97h-32.49c-16.39,0-30.09,13.04-30.54,29.06-.22,8.17,2.78,15.87,8.46,21.71,5.68,5.84,13.3,9.06,21.44,9.06h33.13v9.97h-33.13c-19.17,0-35.65-13.65-39.2-32.45-.32-1.68-1.82-2.9-3.58-2.9H2.7c-1.49,0-2.7-1.21-2.7-2.7v-3.68c0-1.49,1.21-2.7,2.7-2.7h30.17c1.76,0,3.26-1.22,3.58-2.9C39.99,13.65,56.48,0,75.65,0h33.13ZM107.77,8.97V1h-32.13c-18.69,0-34.76,13.3-38.22,31.64-.41,2.15-2.32,3.71-4.56,3.71H2.7c-.94,0-1.7.76-1.7,1.7v3.68c0,.94.76,1.7,1.7,1.7h30.17c2.24,0,4.16,1.56,4.56,3.72,3.46,18.33,19.53,31.63,38.22,31.63h32.13v-7.98h-32.13c-8.42,0-16.29-3.33-22.16-9.36-5.87-6.04-8.96-14.01-8.74-22.43.46-16.56,14.61-30.03,31.53-30.03h31.49Z"/>
      <path class="cls-1" d="M101.81,80.68v3.87c0,1.05-.85,1.9-1.9,1.9h-11.54c-1.05,0-1.9-.85-1.9-1.9v-3.87c0-1.05.85-1.9,1.9-1.9h11.54c1.05,0,1.9.85,1.9,1.9ZM87.47,84.55c0,.5.4.9.9.9h11.54c.5,0,.9-.4.9-.9v-3.87c0-.5-.4-.9-.9-.9h-11.54c-.5,0-.9.4-.9.9v3.87Z"/>
    </g>
  </g>
</svg>