<?xml version="1.0" encoding="UTF-8"?>
<svg id="Layer_2" data-name="Layer 2" xmlns="http://www.w3.org/2000/svg" viewBox="0 0 719.49 87.83">
  <defs>
    <style>
      .cls-1 {
        fill: #454545;
        stroke-width: 0px;
      }
    </style>
  </defs>
  <g id="Layer_1-2" data-name="Layer 1">
    <g id="espeto_simples" data-name="espeto simples">
      <g>
        <g id="garras_espeto_simples" data-name="garras espeto simples">
          <g>
            <path class="cls-1" d="M459.8,73.76l-.19-20.26-.99-1.8.21,22.08c.05,5.38-4.29,9.8-9.67,9.85l-112.28,1.06-1.67-1.51,1.63-1.42,111.91-1.06c3.97-.04,7.17-3.3,7.14-7.27l-.24-24.82h-.98s.24,24.83.24,24.83c.03,3.43-2.73,6.25-6.17,6.29l-112.27,1.06-2.73,2.38,2.77,2.51,112.66-1.07c5.92-.06,10.69-4.92,10.64-10.84Z"/>
            <path class="cls-1" d="M448.03,3.91l-123.37,1.17-1.69-1.58,1.64-1.35,123.77-1.17c5.38-.05,9.8,4.29,9.85,9.67l.24,25.07h.98s-.24-25.08-.24-25.08c-.06-5.92-4.92-10.69-10.84-10.64l-124.12,1.18-2.76,2.28,2.78,2.6,123.77-1.17c3.43-.03,6.25,2.73,6.29,6.17l.19,19.89.99,1.8-.21-21.7c-.04-3.97-3.3-7.17-7.27-7.14Z"/>
            <g>
              <path class="cls-1" d="M457.41,36.21l2.43-.02c.37,0,.71.19.9.51l2.88,4.89c.09.16.14.34.14.51s-.04.36-.13.52l-1.36,2.41.55,1,1.66-2.93c.35-.62.35-1.39-.02-2.01l-2.88-4.89c-.36-.62-1.03-.99-1.75-.99l-2.95.03.54.97Z"/>
              <path class="cls-1" d="M456.64,48.11l-2.36.02c-.37,0-.71-.19-.9-.51l-2.88-4.89c-.19-.31-.19-.71,0-1.03l1.33-2.35-.55-1-1.62,2.87c-.18.31-.26.66-.26,1.01s.1.69.28,1l2.88,4.89c.36.62,1.03.99,1.75.99l2.89-.03-.54-.97Z"/>
            </g>
            <path class="cls-1" d="M445.85,29.15c0-.59.31-1.17.86-1.47l3.57-1.97c.39-.21.84-.26,1.26-.14.43.12.78.4.99.79l15.52,28.15c.44.8.15,1.81-.65,2.26l-3.57,1.97c-.8.44-1.81.15-2.26-.65h0s-15.52-28.15-15.52-28.15c-.14-.25-.2-.52-.21-.78ZM467.29,55.31c0-.11-.03-.22-.09-.32l-15.52-28.15c-.09-.16-.23-.28-.41-.33-.18-.05-.36-.03-.52.06l-3.57,1.97c-.33.18-.45.6-.27.93l15.52,28.15c.18.33.6.45.93.27l3.57-1.97c.23-.13.36-.36.35-.61Z"/>
          </g>
          <g>
            <path class="cls-1" d="M97.94,14.06l.19,20.26.99,1.8-.21-22.08c-.05-5.38,4.29-9.8,9.67-9.85l112.28-1.06,1.67,1.51-1.63,1.42-111.91,1.06c-3.97.04-7.17,3.3-7.14,7.27l.24,24.82h.98s-.24-24.83-.24-24.83c-.03-3.43,2.73-6.25,6.17-6.29l112.27-1.06,2.73-2.38-2.77-2.51-112.66,1.07c-5.92.06-10.69,4.92-10.64,10.84Z"/>
            <path class="cls-1" d="M109.71,83.91l123.37-1.17,1.69,1.58-1.64,1.35-123.77,1.17c-5.38.05-9.8-4.29-9.85-9.67l-.24-25.07h-.98s.24,25.08.24,25.08c.06,5.92,4.92,10.69,10.84,10.64l124.12-1.18,2.76-2.28-2.78-2.6-123.77,1.17c-3.43.03-6.25-2.73-6.29-6.17l-.19-19.89-.99-1.8.21,21.7c.04,3.97,3.3,7.17,7.27,7.14Z"/>
            <g>
              <path class="cls-1" d="M100.32,51.61l-2.43.02c-.37,0-.71-.19-.9-.51l-2.88-4.89c-.09-.16-.14-.34-.14-.51s.04-.36.13-.52l1.36-2.41-.55-1-1.66,2.93c-.35.62-.35,1.39.02,2.01l2.88,4.89c.36.62,1.03.99,1.75.99l2.95-.03-.54-.97Z"/>
              <path class="cls-1" d="M101.1,39.72l2.36-.02c.37,0,.71.19.9.51l2.88,4.89c.19.31.19.71,0,1.03l-1.33,2.35.55,1,1.62-2.87c.18-.31.26-.66.26-1.01,0-.35-.1-.69-.28-1l-2.88-4.89c-.36-.62-1.03-.99-1.75-.99l-2.89.03.54.97Z"/>
            </g>
            <path class="cls-1" d="M111.89,58.68c0,.59-.31,1.17-.86,1.47l-3.57,1.97c-.39.21-.84.26-1.26.14-.43-.12-.78-.4-.99-.79l-15.52-28.15c-.44-.8-.15-1.81.65-2.26l3.57-1.97c.8-.44,1.81-.15,2.26.65h0s15.52,28.15,15.52,28.15c.14.25.2.52.21.78ZM90.45,32.52c0,.11.03.22.09.32l15.52,28.15c.09.16.23.28.41.33.18.05.36.03.52-.06l3.57-1.97c.33-.18.45-.6.27-.93l-15.52-28.15c-.18-.33-.6-.45-.93-.27l-3.57,1.97c-.23.13-.36.36-.35.61Z"/>
          </g>
        </g>
        <g id="espeto_simples-2" data-name="espeto simples">
          <path class="cls-1" d="M464.04,41.34c.28.47.28,1.04.01,1.52l-1.55,2.74,256.98-2.44-.06-6.84-256.91,2.44,1.53,2.59Z"/>
          <path class="cls-1" d="M93.7,46.49c-.28-.47-.28-1.04-.01-1.52l1.55-2.74-90.73.86-4.5,3.46,4.57,3.38,90.65-.86-1.53-2.59Z"/>
          <path class="cls-1" d="M107.66,44.84c.28.47.28,1.04.01,1.52l-1.48,2.61,345.48-3.28-1.6-2.71c-.28-.47-.28-1.04-.01-1.52l1.48-2.61-345.48,3.28,1.6,2.71Z"/>
        </g>
      </g>
    </g>
  </g>
</svg>