<?xml version="1.0" encoding="UTF-8"?>
<svg id="Layer_2" data-name="Layer 2" xmlns="http://www.w3.org/2000/svg" viewBox="0 0 148.39 251.05">
  <defs>
    <style>
      .cls-1 {
        fill: none;
        stroke: #999;
        stroke-linejoin: round;
      }

      .cls-2 {
        fill: #4888ff;
        stroke-width: 0px;
      }
    </style>
  </defs>
  <g id="Layer_1-2" data-name="Layer 1">
    <g>
      <path class="cls-2" d="M130.97,180.86h-9.52c-1.87,0-3.4-1.46-3.4-3.25V24.77l-1.17-1.46-1.09,1.46v152.84c0,2.98,2.54,5.4,5.65,5.4h9.52v67.56h2.25v-67.56h9.52c3.12,0,5.65-2.42,5.65-5.4V24.77l-1.04-1.73-1.21,1.73v152.84c0,1.79-1.52,3.25-3.4,3.25h-9.52V1.96l-1.13-1.65-1.13,1.65v178.9Z"/>
      <g>
        <path class="cls-1" d="M41.09,89.64c-3.99,0-8.28-.2-13.09-.6.03-.09.04-.21.06-.32.02-.14.04-.27.03-.41,0-.6-.14-1.25-.27-1.88-.09-.43-.18-.86-.23-1.28,5.02.48,9.53.7,13.77.7h.68c4.45-.03,9.28-.3,14.76-.85-.15,1.24-.17,2.63-.17,3.82-5.3.52-10.17.8-14.85.83h-.7Z"/>
        <path class="cls-1" d="M29.71,181.04c-.42,0-4.13-.18-5-6.29l-.08-.34c-.17-.68-.34-1.4-.46-2.15-.15-.89-.26-1.86-.36-3.03-.08-1.04-.15-2.18-.18-3.49-.03-.97-.04-1.94-.04-2.91,0-1.58.04-3.18.09-4.67.05-1.24.1-2.49.17-3.74.05-1.15.12-2.3.2-3.44.07-1,.14-2,.22-2.99.09-1.09.23-2.53.53-4,5.81.97,11.4,1.46,16.57,1.46h.16c5.78,0,11.83-.54,17.98-1.61,0,.11.02.25.05.38.04.18.08.36.1.54.41,2.86.66,6.01.76,9.61.09,2.92.06,5.89.03,8.77l-.05,4.73c-.06,4.62-.06,6.3.01,7.15-.11,1.81-.64,3.18-1.69,4.19-1.79,1.69-4.61,1.83-5.43,1.83h-.19s-23.4,0-23.4,0Z"/>
        <path class="cls-1" d="M41.15,83.02c-4.44,0-9.16-.23-14.02-.68-.06-.36-.09-.72-.13-1.08-.05-.48-.1-.99-.26-1.53-1.18-3.25-1.38-6.95-1.57-10.52v-.33c-.18-3.43-.09-7.16.25-11.41l.16-2.23c.17-2.52.35-5.39,1.01-7.95.42-1.67,1.03-2.89,1.88-3.72,1.87-1.83,4.98-1.89,7.73-1.94,1.08-.02,2.18-.03,3.27-.03,2.46,0,4.98.05,7.48.16l.86.04c2.27.11,4.41.21,6.55.75.4.11.92.26,1.35.51.67.39,1.26,1.11,1.81,2.18l1.27-.61-1.1.92c1.43,3.09,1.69,6.69,1.83,9.82.17,3.62,0,7.05-.25,11.51-.24,4.12-.46,8.01-1.49,11.8-.19.69-.29,1.47-.38,2.21-.05.43-.11.87-.18,1.29-5.29.53-10.4.83-15.18.85h-.89Z"/>
        <path class="cls-2" d="M48.23,18.46c-1.41,0-2.57-1.15-2.57-2.57v-4.25c0-1.46,1.2-2.57,2.8-2.57,1.41,0,2.57,1.15,2.57,2.57v4.25c0,1.46-1.2,2.57-2.8,2.57Z"/>
        <path class="cls-2" d="M65.01,27.54c-.78,0-1.42-.63-1.42-1.41V1.42c0-.81.68-1.42,1.58-1.42.78,0,1.42.64,1.42,1.42v24.71c0,.82-.66,1.41-1.58,1.41Z"/>
        <polygon class="cls-2" points="53.82 15.13 53.85 12.39 60.79 12.42 60.77 15.13 53.82 15.13"/>
        <path class="cls-1" d="M41.38,142.62c-.47,0-.94-.06-1.4-.12-.42-.05-.83-.1-1.25-.11-4.96-.14-9.32-.51-13.3-1.15,0,0,.06-.12.06-.12.21-.84.42-1.69.61-2.53.03-.15.05-.29.07-.44.01-.12.03-.23.05-.35,5.59.87,10.66,1.29,15.44,1.3h.15c5.14,0,10.53-.46,16.48-1.41.03.29.09.61.15.92.1.53.2,1.06.32,1.59.03.15.06.3.09.45.03.15.06.31.09.46-3.45.57-7.07.98-11.05,1.23l-.72.05c-1.88.12-3.82.25-5.73.25h-.06Z"/>
        <path class="cls-1" d="M36.62,250.55c-1.36,0-2.72-.02-4.08-.06-1.81-.06-3.69-.16-5.59-.3-1.78-.13-3.57-.29-5.31-.48-1.64-.18-3.28-.37-4.91-.59-1.45-.2-2.9-.41-4.35-.63-1.22-.2-2.44-.4-3.65-.62-.94-.17-1.87-.35-2.81-.55-.6-.12-1.2-.25-1.8-.39-.6-.14-1.18-.38-1.72-.69l-.29-.18c-.18-.11-.37-.23-.6-.36l.02-.94c.01-.38.02-.76.02-1.15v-.76c0-.38.01-.77.02-1.18v-.83c.22-.24.53-.45.9-.59.53,1.35,1.44,2.23,2.59,2.54,10.21,2.74,23.35,4.25,37.02,4.25,12.67,0,25.05-1.31,34.86-3.7,1.34-.32,2.35-1.37,2.85-2.94.2.19.42.35.46.44.04.1.05.28.07.42.26,4.15-1.05,5.09-2.06,5.45-1.95.68-4.18,1.01-6.33,1.33l-1.05.16c-2.22.33-4.62.63-7.31.9-4.85.49-10.11.87-16.1,1.14-3.06.14-6.34.28-9.56.31-.43,0-.86,0-1.29,0Z"/>
        <path class="cls-1" d="M.5,58.66l.03-17.76,26.96.03c-.13.03-.25.1-.37.18-.21.13-.43.26-.62.44-1.23,1.2-2.1,2.85-2.66,5.05-.7,2.77-.89,5.66-1.08,8.45l-.16,2.19c-.02.28-.02.52-.02.76,0,.21,0,.43-.01.67H.5Z"/>
        <path class="cls-1" d="M42.08,244.2c-13.44,0-26.32-1.47-36.29-4.15-.62-.17-1.05-.73-1.05-1.37v-49.56c11.14,1.54,24.07,2.35,37.35,2.35,12.44,0,24.66-.71,35.32-2.06l-.03,49.8c0,.66-.45,1.23-1.09,1.38-9.6,2.33-21.75,3.62-34.2,3.62Z"/>
        <path class="cls-1" d="M42.08,188.63c-13.33,0-26.37-.84-37.72-2.42l-1.92-.91c-.19-.08-.53-.22-.63-.33-.1-.12-.1-.61-.1-.87v-3.89s-.02-.21-.02-.21c1.19-.82,2.68-1.27,3.84-1.57.76-.2,1.58-.38,2.6-.58.97-.18,1.93-.34,2.9-.49.99-.15,1.98-.28,2.97-.4.96-.11,1.92-.22,2.87-.31.85-.08,1.71-.16,2.56-.23l2.76-.19c1.58,7.52,7.34,7.61,7.59,7.61h23.27s.14,0,.31,0c1.07,0,4.75-.19,7.3-2.58,1.17-1.1,1.9-2.65,2.23-4.73,13.56,1.32,16.81,3,17.49,3.48l.04,4.7c-.17.3-1.25.93-2.21,1.28l-.91.33-.02.21c-10.78,1.35-22.96,2.08-35.2,2.08Z"/>
        <path class="cls-1" d="M42.19,115.42c-4.9,0-10.03-.28-15.69-.85v-.66c-.08-1.07-.14-2.13-.17-3.21,5.68.59,10.76.87,15.51.87h.68c4.72-.03,9.87-.35,15.74-.97-.02.26,0,.54.01.82.02.41.05.81.05,1.21,0,.37-.04.74-.08,1.11-.03.26-.05.52-.07.78-5.51.56-10.51.85-15.27.88h-.7Z"/>
        <path class="cls-1" d="M41.8,108.75c-4.83,0-9.89-.27-15.47-.83.1-1.65.19-3.44.39-5.29.13-1.17.27-2.53.36-3.88.09-1.36.28-2.73.45-4.05.07-.55.11-1.07.15-1.59.03-.42.06-.85.1-1.27,4.9.44,9.29.64,13.4.64h.62c4.64-.03,9.53-.31,14.95-.87-.01.47,0,.94,0,1.41,0,.76,0,1.54.09,2.41.16,1.58.35,3.17.55,4.75.32,2.64.56,5.22.73,7.67-5.7.58-10.82.89-15.61.92h-.7Z"/>
        <path class="cls-1" d="M62.33,58.66l.03-.8c0-.86.02-1.75-.03-2.63-.17-3.67-.54-7.53-2.1-10.86l-.2-.42c-.68-1.35-1.53-2.33-2.68-3.08l25.52.05-.03,17.74h-20.52Z"/>
        <path class="cls-1" d="M41.66,136.27c-.09,0-.18-.01-.26-.02-.08-.01-.17-.02-.25-.02-4.58-.03-9.48-.43-14.55-1.19.05-.19.09-.42.13-.66.04-.24.08-.48.11-.72l.07-.58c.43-3.94.22-8.05,0-11.6l-.13-2.1c-.02-.34-.04-.68-.05-1.03-.01-.33-.03-.65-.05-.98,5.75.6,10.85.88,15.57.88h.67c4.5-.03,9.43-.32,15.07-.89-.07.36-.1.76-.12,1.16-.03.45-.06.89-.11,1.33-.21,1.8-.4,3.57-.51,5.33-.12,1.79-.14,3.48-.07,5.17.07,1.34.27,2.65.45,3.8l.12.8c-5.37.83-10.6,1.27-15.54,1.28-.09,0-.18.01-.27.02-.09.01-.19.02-.28.02Z"/>
        <path class="cls-2" d="M44.4,182.1c-1.55-.04-3.08-.05-4.62-.05-.37-.41-.83-1.1-.83-2.05V6.88c0-1.74,1.42-3.05,3.3-3.05,1.68,0,3.05,1.37,3.05,3.05v.38c-1.56,1.02-2.46,2.63-2.46,4.39v4.25c0,1.74.9,3.34,2.47,4.37v159.73c-.01.79-.33,1.53-.91,2.1Z"/>
      </g>
    </g>
  </g>
</svg>